<svg width="254" height="252" viewBox="0 0 254 252" fill="none" xmlns="http://www.w3.org/2000/svg">
<g clip-path="url(#clip0_143_225)">
<path d="M167.332 135.185L119.138 135.488C118.822 135.488 118.726 135.777 118.726 136.052V177.13C118.726 181.068 91.3433 191.272 91.0822 190.763L91.0547 195.114C91.0547 195.926 91.7695 196.643 92.663 196.643H93.2678H93.2815H133.681C135.551 196.643 137.406 196.216 139.111 195.513L161.325 186.149C165.325 184.469 167.84 180.834 167.84 176.882V135.763C167.84 135.488 167.648 135.185 167.332 135.185Z" fill="#651FFF"/>
<path d="M113.846 133.105V174.183C113.846 178.231 111.248 181.922 107.152 183.671L92.1687 190.074C91.1927 190.487 91.5226 191.809 92.6085 191.809H133.778C135.634 191.809 137.462 191.437 139.139 190.735L155.744 183.726C159.868 181.991 162.494 178.286 162.494 174.21V133.105C162.494 132.94 162.342 132.802 162.15 132.802H114.19C113.997 132.802 113.846 132.94 113.846 133.105Z" fill="white"/>
<path d="M133.778 192.112H92.6083C91.8522 192.112 91.4124 191.616 91.3024 191.12C91.1924 190.57 91.4811 190.033 92.0447 189.799L107.028 183.395C110.973 181.701 113.53 178.094 113.53 174.197V133.105C113.53 132.775 113.818 132.5 114.176 132.5H162.136C162.493 132.5 162.782 132.775 162.782 133.105V174.224C162.782 178.397 160.06 182.239 155.854 184.015L139.249 191.024C137.558 191.74 135.661 192.112 133.778 192.112ZM114.148 133.119V174.183C114.148 178.328 111.454 182.17 107.275 183.946L92.2921 190.349C91.9897 190.473 91.8522 190.721 91.9072 190.983C91.9484 191.217 92.1684 191.492 92.6083 191.492H133.778C135.578 191.492 137.393 191.134 139.015 190.446L155.62 183.437C159.607 181.757 162.177 178.135 162.177 174.21V133.105C162.177 133.105 162.163 133.105 162.15 133.105H114.19C114.176 133.105 114.162 133.105 114.148 133.119Z" fill="#651FFF"/>
<path d="M23.7676 156.639L231.471 157.107C233.285 157.107 235.1 155.744 235.333 153.926L252.214 23.7265C252.612 20.5731 250.179 17.4334 247.045 17.516L41.7474 18.6039L23.7676 156.639Z" fill="#651FFF"/>
<path d="M238.88 18.2595C242.454 18.2595 245.684 21.8949 245.217 25.4477L228.832 153.61C228.598 155.414 226.66 156.956 224.845 156.956L20.8124 156.625C18.6267 156.625 17.1834 154.808 17.4583 152.646L34.421 22.1015C34.6547 20.2976 35.8506 18.2595 37.665 18.2595H238.88Z" fill="white"/>
<path d="M224.859 157.259L20.8257 156.928C19.726 156.928 18.7363 156.501 18.049 155.717C17.3342 154.904 17.018 153.761 17.1555 152.604L34.1181 22.0602C34.3793 20.0634 35.6989 17.9565 37.6646 17.9565H238.866C240.667 17.9565 242.467 18.8241 243.801 20.3388C245.12 21.8398 245.739 23.7126 245.519 25.489L229.147 153.651C228.9 155.579 226.893 157.259 224.859 157.259ZM37.6921 18.5624C36.0838 18.5624 34.9704 20.4077 34.7504 22.129L17.7878 152.673C17.6641 153.679 17.9252 154.615 18.5301 155.303C19.0937 155.951 19.9184 156.309 20.8394 156.309L224.872 156.639C226.591 156.639 228.35 155.179 228.556 153.568L244.942 25.4064C245.148 23.809 244.571 22.1015 243.375 20.7382C242.165 19.3611 240.529 18.5624 238.907 18.5624H37.6921Z" fill="#651FFF"/>
<path d="M220.061 151.434L27.2862 151.131C26.269 151.131 25.348 150.732 24.7157 150.002C24.0559 149.245 23.7535 148.198 23.8909 147.11L39.5065 27.0177C39.7402 25.1724 40.9773 23.217 42.7918 23.217H232.955C234.618 23.217 236.282 24.0157 237.505 25.4203C238.728 26.8111 239.306 28.5462 239.086 30.1849L224.006 148.088C223.8 149.864 221.944 151.434 220.061 151.434ZM42.7918 23.8367C41.321 23.8367 40.3175 25.5167 40.1113 27.1003L24.4958 147.193C24.372 148.115 24.6195 148.969 25.1693 149.589C25.6917 150.181 26.434 150.511 27.2725 150.511L220.047 150.814C221.615 150.814 223.223 149.479 223.402 148.005L238.495 30.1023C238.687 28.6426 238.165 27.0865 237.051 25.8334C235.938 24.5665 234.453 23.8367 232.955 23.8367H42.7918Z" fill="#651FFF"/>
<path d="M212.694 40.1134H134.341C134.259 40.1134 134.162 40.0721 134.107 40.0033C134.052 39.9344 134.025 39.8518 134.039 39.7554L134.561 35.8171C134.575 35.6656 134.712 35.5554 134.863 35.5554H213.216C213.299 35.5554 213.395 35.5967 213.45 35.6656C213.505 35.7344 213.532 35.8171 213.518 35.9134L212.996 39.8518C212.982 39.9895 212.845 40.1134 212.694 40.1134ZM134.685 39.4938H212.419L212.859 36.1751H135.125L134.685 39.4938Z" fill="#651FFF"/>
<path d="M229.602 46.2827H149.765L150.301 42.3582H230.138L229.602 46.2827Z" fill="#651FFF"/>
<path d="M219.099 53.0854H177.833C177.751 53.0854 177.655 53.0441 177.6 52.9752C177.545 52.9064 177.517 52.8237 177.531 52.7273L178.053 48.789C178.067 48.6375 178.204 48.5273 178.356 48.5273H219.621C219.704 48.5273 219.8 48.5687 219.855 48.6375C219.91 48.7064 219.937 48.789 219.924 48.8854L219.401 52.8237C219.388 52.9752 219.264 53.0854 219.099 53.0854ZM178.191 52.4657H218.838L219.278 49.147H178.631L178.191 52.4657Z" fill="#651FFF"/>
<path d="M205.724 92.0143H127.371C127.289 92.0143 127.193 91.973 127.138 91.9042C127.083 91.8353 127.055 91.7527 127.069 91.6563L127.591 87.7179C127.605 87.5665 127.742 87.4563 127.894 87.4563H206.246C206.329 87.4563 206.425 87.4976 206.48 87.5665C206.535 87.6353 206.562 87.7179 206.549 87.8143L206.026 91.7527C206.013 91.9042 205.875 92.0143 205.724 92.0143ZM127.715 91.3947H205.449L205.889 88.076H128.169L127.715 91.3947Z" fill="#651FFF"/>
<path d="M163.332 98.5004H142.809C142.726 98.5004 142.63 98.4591 142.575 98.3903C142.52 98.3214 142.493 98.2388 142.506 98.1424L143.029 94.204C143.043 94.0525 143.18 93.9424 143.331 93.9424H161.902C162.067 93.9424 162.205 94.0801 162.205 94.2453C162.205 94.4106 162.067 94.5483 161.902 94.5483H143.606L143.166 97.867H163.345C163.51 97.867 163.648 98.0047 163.648 98.1699C163.634 98.3627 163.497 98.5004 163.332 98.5004Z" fill="#651FFF"/>
<path d="M222.632 98.5005H173.325C173.16 98.5005 173.022 98.3628 173.022 98.1975C173.022 98.0323 173.16 97.8946 173.325 97.8946H222.371L222.811 94.5759H170.658C170.493 94.5759 170.355 94.4382 170.355 94.2729C170.355 94.1077 170.493 93.97 170.658 93.97H223.154C223.237 93.97 223.333 94.0113 223.388 94.0801C223.443 94.149 223.47 94.2316 223.457 94.328L222.934 98.2664C222.92 98.3903 222.797 98.5005 222.632 98.5005Z" fill="#651FFF"/>
<path d="M221.766 104.986H179.112C178.947 104.986 178.809 104.849 178.809 104.683C178.809 104.518 178.947 104.38 179.112 104.38H221.491L221.931 101.062H176.775C176.61 101.062 176.473 100.924 176.473 100.759C176.473 100.594 176.61 100.456 176.775 100.456H222.302C222.385 100.456 222.481 100.497 222.536 100.566C222.591 100.635 222.618 100.717 222.604 100.814L222.082 104.752C222.055 104.876 221.917 104.986 221.766 104.986Z" fill="#651FFF"/>
<path d="M169.875 111.21H140.788C140.706 111.21 140.61 111.169 140.555 111.1C140.5 111.031 140.472 110.949 140.486 110.852L141.008 106.914C141.022 106.763 141.159 106.652 141.311 106.652H165.243C165.408 106.652 165.545 106.79 165.545 106.955C165.545 107.121 165.408 107.258 165.243 107.258H141.572L141.132 110.577H169.861C170.026 110.577 170.164 110.715 170.164 110.88C170.191 111.073 170.054 111.21 169.875 111.21Z" fill="#651FFF"/>
<path d="M210.082 59.2682H131.716L132.252 55.3298H210.605L210.082 59.2682Z" fill="#651FFF"/>
<path d="M215.567 65.754H147.152L147.688 61.8157H215.677L215.567 65.754Z" fill="#651FFF"/>
<path d="M205.999 79.0426H174.356C174.273 79.0426 174.177 79.0013 174.122 78.9325C174.067 78.8636 174.04 78.781 174.053 78.6846L174.576 74.7463C174.589 74.5948 174.727 74.4846 174.878 74.4846H206.522C206.604 74.4846 206.7 74.5259 206.755 74.5948C206.81 74.6636 206.838 74.7463 206.824 74.8426L206.302 78.781C206.274 78.9187 206.15 79.0426 205.999 79.0426ZM174.713 78.423H205.738L206.178 75.1043H175.153L174.713 78.423Z" fill="#651FFF"/>
<path d="M214.591 85.2118H182.947L183.47 81.2734H215.113L214.591 85.2118Z" fill="#651FFF"/>
<path d="M213.065 72.2401H175.222L175.758 68.3018H213.216L213.065 72.2401Z" fill="#651FFF"/>
<path d="M202.246 117.655H123.88L124.416 113.73H202.769L202.246 117.655Z" fill="white"/>
<path d="M180.679 124.458H139.317C139.234 124.458 139.138 124.416 139.083 124.348C139.028 124.279 139 124.196 139.014 124.1L139.537 120.161C139.55 120.01 139.688 119.9 139.839 119.9H179.263C179.428 119.9 179.565 120.037 179.565 120.203C179.565 120.368 179.428 120.506 179.263 120.506H140.1L139.66 123.824H180.679C180.844 123.824 180.981 123.962 180.981 124.127C180.995 124.32 180.857 124.458 180.679 124.458Z" fill="#651FFF"/>
<path d="M202.439 130.944H167.387C167.304 130.944 167.208 130.902 167.153 130.833C167.098 130.765 167.071 130.682 167.085 130.585L167.607 126.647C167.621 126.496 167.758 126.385 167.909 126.385H201.189C201.354 126.385 201.491 126.523 201.491 126.688C201.491 126.854 201.354 126.991 201.189 126.991H168.184L167.744 130.31H202.453C202.618 130.31 202.756 130.448 202.756 130.613C202.756 130.806 202.618 130.944 202.439 130.944Z" fill="#651FFF"/>
<path d="M199.635 137.127H121.269L121.805 133.188H200.157L199.635 137.127Z" fill="white"/>
<path d="M202.137 143.915H136.705C136.623 143.915 136.527 143.874 136.472 143.805C136.417 143.736 136.389 143.654 136.403 143.557L136.925 139.619C136.939 139.468 137.076 139.357 137.228 139.357H202.439C202.604 139.357 202.741 139.495 202.741 139.66C202.741 139.826 202.604 139.963 202.439 139.963H137.503L137.063 143.282H202.137C202.302 143.282 202.439 143.42 202.439 143.585C202.439 143.778 202.302 143.915 202.137 143.915Z" fill="#651FFF"/>
<path d="M121.722 85.1428H114.093L114.601 81.356H122.23L121.722 85.1428Z" fill="#651FFF"/>
<path d="M128.101 39.7967H120.142L120.664 35.8721H128.623L128.101 39.7967Z" fill="#651FFF"/>
<path d="M128.897 33.8341H120.938L121.475 29.8958H129.42L128.897 33.8341Z" fill="#651FFF"/>
<path d="M127.166 46.2827H119.275L119.798 42.3582H127.688L127.166 46.2827Z" fill="#651FFF"/>
<path d="M126.025 52.7824H118.533L119.056 48.844H126.561L126.025 52.7824Z" fill="#651FFF"/>
<path d="M125.199 59.2682H117.57L118.093 55.3298H125.722L125.199 59.2682Z" fill="#651FFF"/>
<path d="M124.278 65.754H116.663L117.185 61.8157H124.815L124.278 65.754Z" fill="#651FFF"/>
<path d="M122.766 78.4644H115.206L115.742 74.5398H123.302L122.766 78.4644Z" fill="#651FFF"/>
<path d="M123.454 71.9784H116.224L116.746 68.04H123.976L123.454 71.9784Z" fill="#651FFF"/>
<path d="M119.083 104.849H111.454L111.949 101.075H119.592L119.083 104.849Z" fill="#651FFF"/>
<path d="M120.128 98.1837H112.567L113.09 94.2454H120.65L120.128 98.1837Z" fill="#651FFF"/>
<path d="M120.801 91.6976H113.584L114.106 87.7593H121.337L120.801 91.6976Z" fill="#651FFF"/>
<path d="M113.928 143.227H106.299L106.807 139.454H114.437L113.928 143.227Z" fill="#651FFF"/>
<path d="M118.231 110.866H110.739L111.262 106.928H118.753L118.231 110.866Z" fill="#651FFF"/>
<path d="M117.405 117.352H109.776L110.299 113.414H117.928L117.405 117.352Z" fill="#651FFF"/>
<path d="M116.484 123.838H108.869L109.391 119.914H117.021L116.484 123.838Z" fill="#651FFF"/>
<path d="M114.972 136.562H107.412L107.948 132.624H115.509L114.972 136.562Z" fill="#651FFF"/>
<path d="M115.66 130.076H108.43L108.952 126.138H116.182L115.66 130.076Z" fill="#651FFF"/>
<path d="M87.6323 32.9802H49.9131L50.4217 29.1934H88.1409L87.6323 32.9802Z" fill="#651FFF"/>
<path d="M94.2716 39.8517H54.5042C54.4217 39.8517 54.3255 39.8104 54.2705 39.7416C54.2155 39.6727 54.188 39.5901 54.2017 39.4937L54.7241 35.5553C54.7378 35.4039 54.8753 35.2937 55.0265 35.2937H94.7802C94.8626 35.2937 94.9589 35.335 95.0138 35.4039C95.0688 35.4727 95.0963 35.5553 95.0826 35.6517L94.5602 39.5901C94.5465 39.7278 94.4228 39.8517 94.2716 39.8517ZM54.8616 39.2321H93.9966L94.4365 35.9134H55.3014L54.8616 39.2321Z" fill="#651FFF"/>
<path d="M104.663 46.3376H58.3391C58.2566 46.3376 58.1604 46.2963 58.1054 46.2274C58.0505 46.1586 58.023 46.0759 58.0367 45.9795L58.5591 42.0412C58.5728 41.8897 58.7103 41.7795 58.8615 41.7795H105.186C105.268 41.7795 105.364 41.8209 105.419 41.8897C105.474 41.9586 105.502 42.0412 105.488 42.1376L104.966 46.0759C104.938 46.2274 104.815 46.3376 104.663 46.3376ZM58.6828 45.7179H104.388L104.828 42.3992H59.1364L58.6828 45.7179Z" fill="#651FFF"/>
<path d="M110.601 52.8234H71.9475C71.865 52.8234 71.7688 52.7821 71.7138 52.7132C71.6589 52.6444 71.6314 52.5618 71.6451 52.4654L72.1675 48.527C72.1812 48.3755 72.3187 48.2654 72.4699 48.2654H111.124C111.206 48.2654 111.303 48.3067 111.358 48.3755C111.412 48.4444 111.44 48.527 111.426 48.6234L110.904 52.5618C110.876 52.7133 110.753 52.8234 110.601 52.8234ZM72.2912 52.2037H110.327L110.766 48.8851H72.731L72.2912 52.2037Z" fill="#651FFF"/>
<path d="M73.5008 84.8811H42.957L43.4519 81.0942H74.0094L73.5008 84.8811Z" fill="#651FFF"/>
<path d="M73.9822 91.7526H51.6448C51.5623 91.7526 51.4661 91.7113 51.4111 91.6424C51.3561 91.5736 51.3286 91.491 51.3424 91.3946L51.8647 87.4562C51.8785 87.3047 52.0159 87.1946 52.1671 87.1946H74.5045C74.587 87.1946 74.6832 87.2359 74.7382 87.3047C74.7932 87.3736 74.8207 87.4562 74.8069 87.5526L74.2846 91.491C74.2571 91.6425 74.1334 91.7526 73.9822 91.7526ZM51.9884 91.1329H73.7072L74.1471 87.8143H52.4283L51.9884 91.1329Z" fill="#651FFF"/>
<path d="M81.9829 98.2387H60.594C60.5115 98.2387 60.4153 98.1974 60.3603 98.1285C60.3053 98.0597 60.2778 97.9771 60.2916 97.8807L60.8139 93.9423C60.8277 93.7908 60.9651 93.6807 61.1164 93.6807H82.5052C82.5877 93.6807 82.684 93.722 82.7389 93.7908C82.7939 93.8597 82.8214 93.9423 82.8077 94.0387L82.2853 97.9771C82.2578 98.1285 82.1341 98.2387 81.9829 98.2387ZM60.9377 97.6328H81.708L82.1478 94.3141H61.3913L60.9377 97.6328Z" fill="#651FFF"/>
<path d="M96.1405 104.725H69.0745C68.992 104.725 68.8958 104.683 68.8408 104.614C68.7858 104.546 68.7583 104.463 68.7721 104.367L69.2944 100.428C69.3082 100.277 69.4456 100.167 69.5968 100.167H96.6628C96.7453 100.167 96.8415 100.208 96.8965 100.277C96.9515 100.346 96.979 100.428 96.9653 100.525L96.4429 104.463C96.4292 104.614 96.2917 104.725 96.1405 104.725ZM69.4181 104.119H95.8656L96.3054 100.8H69.8717L69.4181 104.119Z" fill="#651FFF"/>
<path d="M74.2295 59.0065H46.916L47.4384 55.0681H74.7518L74.2295 59.0065Z" fill="#651FFF"/>
<path d="M108.182 65.7953H65.968C65.8855 65.7953 65.7893 65.754 65.7343 65.6852C65.6794 65.6163 65.6519 65.5337 65.6656 65.4373L66.188 61.4989C66.2017 61.3475 66.3392 61.2373 66.4904 61.2373H108.705C108.787 61.2373 108.883 61.2786 108.938 61.3475C108.993 61.4163 109.021 61.4989 109.007 61.5953L108.485 65.5337C108.457 65.6852 108.333 65.7953 108.182 65.7953ZM66.3254 65.1894H107.907L108.347 61.8707H66.7653L66.3254 65.1894Z" fill="#651FFF"/>
<path d="M72.8271 71.9784H45.5137L46.036 68.04H73.3632L72.8271 71.9784Z" fill="#651FFF"/>
<path d="M106.78 78.767H64.5657C64.4832 78.767 64.387 78.7257 64.332 78.6569C64.277 78.588 64.2495 78.5054 64.2633 78.409L64.7856 74.4706C64.7994 74.3191 64.9368 74.209 65.088 74.209H107.302C107.385 74.209 107.481 74.2503 107.536 74.3191C107.591 74.388 107.618 74.4706 107.605 74.567L107.082 78.5054C107.069 78.6568 106.931 78.767 106.78 78.767ZM64.9231 78.1473H106.519L106.959 74.8287H65.363L64.9231 78.1473Z" fill="#651FFF"/>
<path d="M73.4324 110.839H39.4658L39.9744 107.052H73.941L73.4324 110.839Z" fill="#651FFF"/>
<path d="M95.4256 117.71H39.9602C39.8777 117.71 39.7815 117.669 39.7265 117.6C39.6715 117.531 39.6441 117.448 39.6578 117.352L40.1801 113.414C40.1939 113.262 40.3314 113.152 40.4826 113.152H95.948C96.0305 113.152 96.1267 113.193 96.1817 113.262C96.2366 113.331 96.2641 113.414 96.2504 113.51L95.728 117.448C95.7006 117.6 95.5768 117.71 95.4256 117.71ZM40.3039 117.09H95.1507L95.5906 113.772H40.7437L40.3039 117.09Z" fill="#651FFF"/>
<path d="M95.2336 124.196H63.3977C63.3152 124.196 63.219 124.155 63.164 124.086C63.109 124.017 63.0816 123.934 63.0953 123.838L63.6176 119.9C63.6314 119.748 63.7689 119.638 63.9201 119.638H95.756C95.8385 119.638 95.9347 119.679 95.9897 119.748C96.0446 119.817 96.0721 119.9 96.0584 119.996L95.536 123.934C95.5223 124.086 95.3848 124.196 95.2336 124.196ZM63.7414 123.576H94.9587L95.3986 120.258H64.1812L63.7414 123.576Z" fill="#651FFF"/>
<path d="M81.8723 136.865H60.5796L58.8613 132.927H82.4084L81.8723 136.865Z" fill="#651FFF"/>
<path d="M101.598 130.172H71.054C70.9715 130.172 70.8753 130.131 70.8203 130.062C70.7653 129.993 70.7378 129.911 70.7515 129.814L71.2739 125.876C71.2876 125.724 71.4251 125.614 71.5763 125.614H102.134C102.216 125.614 102.313 125.656 102.368 125.724C102.423 125.793 102.45 125.876 102.436 125.972L101.914 129.911C101.886 130.062 101.749 130.172 101.598 130.172ZM71.4114 129.553H101.337L101.776 126.234H71.8512L71.4114 129.553Z" fill="#651FFF"/>
<path d="M88.1823 143.667H63.8105C63.6456 143.667 63.5081 143.53 63.5081 143.364C63.5081 143.199 63.6456 143.062 63.8105 143.062H87.9074L88.3473 139.743H62.6696C62.5046 139.743 62.3672 139.605 62.3672 139.44C62.3672 139.275 62.5046 139.137 62.6696 139.137H88.7047C88.7871 139.137 88.8834 139.178 88.9383 139.247C88.9933 139.316 89.0208 139.399 89.0071 139.495L88.4847 143.433C88.4572 143.544 88.3335 143.667 88.1823 143.667Z" fill="#651FFF"/>
<path d="M241.574 229.94L240.818 237.279L235.883 237.872V229.155L241.574 229.94Z" fill="white"/>
<path d="M235.882 238.174C235.814 238.174 235.731 238.147 235.676 238.092C235.608 238.037 235.58 237.954 235.58 237.858V229.141C235.58 229.058 235.621 228.962 235.69 228.907C235.759 228.852 235.841 228.824 235.937 228.838L241.628 229.623C241.793 229.65 241.903 229.788 241.89 229.953L241.12 237.307C241.106 237.445 240.996 237.568 240.845 237.582L235.91 238.161C235.91 238.174 235.896 238.174 235.882 238.174ZM236.185 229.499V237.513L240.529 237.004L241.243 230.187L236.185 229.499Z" fill="#651FFF"/>
<path d="M235.113 250.664C237.161 250.953 240.542 251.215 244.488 250.664C245.78 250.485 246.646 249.218 246.33 247.937C245.464 244.371 243.965 237.596 241.381 234.456L240.735 236.164L239.855 234.566C239.731 234.346 239.511 234.195 239.264 234.167L237.326 233.919C236.927 233.864 236.542 234.139 236.46 234.539L236.157 236.012L234.975 234.071L234.453 241.3C234.343 242.842 234.109 244.385 233.752 245.899L233.23 248.185C233.078 249.383 233.917 250.499 235.113 250.664Z" fill="white"/>
<path d="M239.773 251.298C237.89 251.298 236.282 251.146 235.072 250.967C233.725 250.774 232.763 249.507 232.941 248.13L233.477 245.817C233.821 244.33 234.055 242.787 234.165 241.273L234.687 234.043C234.701 233.905 234.797 233.795 234.921 233.768C235.044 233.74 235.182 233.795 235.251 233.905L236.02 235.172L236.172 234.456C236.282 233.905 236.818 233.52 237.381 233.589L239.319 233.837C239.663 233.878 239.966 234.084 240.13 234.387L240.694 235.406L241.106 234.332C241.148 234.236 241.23 234.153 241.34 234.14C241.45 234.126 241.56 234.167 241.629 234.25C244.076 237.224 245.56 243.393 246.454 247.07L246.646 247.841C246.811 248.53 246.687 249.273 246.289 249.865C245.89 250.458 245.258 250.843 244.557 250.94C242.811 251.201 241.203 251.298 239.773 251.298ZM235.223 235.048L234.77 241.328C234.66 242.884 234.426 244.454 234.068 245.968L233.546 248.254C233.422 249.26 234.137 250.224 235.154 250.375C237.244 250.678 240.57 250.912 244.447 250.375C244.983 250.306 245.45 250.003 245.753 249.563C246.055 249.108 246.151 248.557 246.028 248.034L245.835 247.263C244.997 243.806 243.636 238.119 241.464 235.117L241.024 236.302C240.983 236.412 240.873 236.494 240.763 236.494C240.639 236.494 240.529 236.439 240.474 236.343L239.594 234.745C239.526 234.608 239.388 234.525 239.237 234.498L237.299 234.25C237.051 234.222 236.818 234.387 236.776 234.622L236.474 236.095C236.447 236.219 236.35 236.315 236.227 236.329C236.103 236.357 235.979 236.288 235.91 236.191L235.223 235.048Z" fill="#651FFF"/>
<path d="M239.608 249.108C237.106 249.108 235.58 248.571 235.484 248.543C235.319 248.488 235.237 248.309 235.306 248.144C235.361 247.979 235.539 247.896 235.704 247.965C235.732 247.979 238.99 249.122 243.787 248.006C243.952 247.965 244.117 248.075 244.158 248.24C244.199 248.406 244.089 248.571 243.924 248.612C242.289 248.984 240.831 249.108 239.608 249.108Z" fill="#651FFF"/>
<path d="M242 243.462C241.987 243.462 241.987 243.462 242 243.462L237.368 243.311C237.203 243.311 237.065 243.159 237.065 242.994C237.065 242.829 237.217 242.691 237.382 242.691L242 242.843C242.165 242.843 242.303 242.994 242.303 243.159C242.289 243.338 242.151 243.462 242 243.462Z" fill="#651FFF"/>
<path d="M218.495 226.015L217.752 236.742H211.828L211.553 226.015H218.495Z" fill="white"/>
<path d="M217.752 237.059H211.827C211.662 237.059 211.525 236.921 211.525 236.756L211.25 226.029C211.25 225.946 211.277 225.863 211.332 225.808C211.387 225.753 211.47 225.712 211.552 225.712H218.494C218.577 225.712 218.659 225.753 218.714 225.808C218.769 225.877 218.797 225.96 218.797 226.042L218.054 236.77C218.041 236.935 217.917 237.059 217.752 237.059ZM212.116 236.439H217.463L218.164 226.332H211.869L212.116 236.439Z" fill="#651FFF"/>
<path d="M219.305 242.801C219.318 243.82 218.631 244.702 217.655 244.936C214.246 245.734 206.562 247.511 204.376 247.841C201.531 248.268 198.039 247.387 196.541 245.707C195.043 244.027 199.909 240.02 202.218 238.574C205.655 236.412 208.94 232.129 210.328 231.936C211.717 231.744 214.287 235.792 214.287 235.792L218.507 234.002C218.494 234.016 219.222 237.651 219.305 242.801Z" fill="white"/>
<path d="M202.878 248.268C200.266 248.268 197.572 247.345 196.294 245.927C196.005 245.597 195.881 245.183 195.95 244.701C196.239 242.595 200.17 239.496 202.026 238.312C203.717 237.252 205.353 235.682 206.796 234.305C208.349 232.818 209.476 231.743 210.26 231.633C211.648 231.441 213.71 234.387 214.384 235.406L218.37 233.726C218.453 233.685 218.549 233.699 218.631 233.74C218.714 233.782 218.769 233.864 218.782 233.947C218.796 233.988 219.525 237.679 219.593 242.787C219.607 243.944 218.81 244.963 217.71 245.225C214.452 245.996 206.617 247.814 204.404 248.144C203.909 248.227 203.401 248.268 202.878 248.268ZM210.411 232.253C210.384 232.253 210.37 232.253 210.342 232.253C209.751 232.336 208.514 233.506 207.208 234.759C205.737 236.164 204.088 237.747 202.342 238.849C200.445 240.047 196.789 243.021 196.541 244.798C196.5 245.101 196.569 245.335 196.734 245.528C198.136 247.098 201.462 247.979 204.294 247.552C206.48 247.221 214.287 245.404 217.545 244.646C218.384 244.454 218.975 243.682 218.961 242.815C218.906 238.684 218.411 235.503 218.219 234.456L214.356 236.095C214.219 236.15 214.054 236.109 213.985 235.971C213.009 234.387 211.263 232.253 210.411 232.253Z" fill="#651FFF"/>
<path d="M202.919 245.638C201.063 245.638 199.4 245.335 198.204 244.55C198.067 244.454 198.026 244.261 198.122 244.123C198.218 243.985 198.41 243.944 198.548 244.041C202.947 246.932 214.672 242.65 216.968 241.768C217.133 241.713 217.298 241.782 217.366 241.947C217.421 242.113 217.353 242.278 217.188 242.347C214.768 243.269 208.088 245.638 202.919 245.638Z" fill="#651FFF"/>
<path d="M209.517 239.799C209.435 239.799 209.366 239.772 209.297 239.717L206.837 237.307C206.713 237.183 206.713 236.99 206.837 236.866C206.961 236.742 207.153 236.742 207.277 236.866L209.737 239.276C209.861 239.4 209.861 239.593 209.737 239.717C209.669 239.772 209.586 239.799 209.517 239.799Z" fill="#651FFF"/>
<path d="M243.264 156.088C243.264 156.088 245.106 189.619 246.068 201.2C247.031 212.781 243.814 231.385 243.814 231.385L234.659 230.903C234.659 230.903 234.027 208.278 233.353 201.999C233.353 201.999 229.491 193.475 228.336 185.888C227.195 178.286 223.291 166.292 223.291 166.292C223.291 166.292 220.116 226.18 219.813 230.89C219.813 230.89 212.638 231.206 210.067 229.581C210.067 229.581 205.504 207.741 206.163 195.857C206.823 183.974 206.095 154.463 206.095 154.463L243.264 156.088Z" fill="white"/>
<path d="M243.814 231.688H243.8L234.645 231.206C234.48 231.193 234.356 231.069 234.356 230.903C234.356 230.683 233.724 208.334 233.051 202.068C232.748 201.38 229.133 193.186 228.033 185.915C227.153 180.077 224.597 171.511 223.497 167.986C222.975 177.763 220.377 226.69 220.115 230.89C220.102 231.041 219.978 231.165 219.827 231.179C219.524 231.193 212.528 231.482 209.902 229.816C209.833 229.774 209.778 229.705 209.765 229.623C209.723 229.402 205.201 207.604 205.847 195.83C206.493 184.098 205.792 154.753 205.778 154.45C205.778 154.367 205.806 154.284 205.875 154.229C205.93 154.174 206.012 154.133 206.108 154.147L243.278 155.785C243.429 155.799 243.566 155.923 243.566 156.075C243.58 156.405 245.408 189.73 246.37 201.173C247.319 212.658 244.144 231.248 244.116 231.44C244.089 231.578 243.951 231.688 243.814 231.688ZM234.947 230.614L243.553 231.069C243.937 228.741 246.632 211.886 245.752 201.228C244.845 190.336 243.14 159.641 242.961 156.391L206.397 154.78C206.479 158.058 207.07 184.786 206.452 195.871C205.833 207.094 209.943 227.543 210.328 229.375C212.596 230.697 218.205 230.614 219.524 230.587C219.909 224.252 222.947 166.871 222.988 166.279C223.002 166.127 223.112 166.003 223.25 165.989C223.401 165.976 223.538 166.058 223.579 166.196C223.621 166.32 227.511 178.3 228.638 185.846C229.765 193.31 233.587 201.793 233.628 201.875C233.642 201.903 233.655 201.93 233.655 201.972C234.288 207.797 234.879 227.97 234.947 230.614Z" fill="#651FFF"/>
<path d="M237.834 202.302H235.03C234.865 202.302 234.728 202.164 234.728 201.999C234.728 201.834 234.865 201.696 235.03 201.696H237.834C237.999 201.696 238.137 201.834 238.137 201.999C238.137 202.164 237.999 202.302 237.834 202.302Z" fill="#651FFF"/>
<path d="M215.098 219.708C214.933 219.708 214.796 219.57 214.796 219.405C214.7 214.035 208.555 203.927 208.5 203.817C208.418 203.665 208.459 203.486 208.597 203.39C208.734 203.307 208.926 203.349 209.023 203.486C209.284 203.913 215.305 213.842 215.415 219.378C215.415 219.57 215.277 219.708 215.098 219.708Z" fill="#651FFF"/>
<path d="M200.445 103.044C199.937 103.003 195.717 110.26 193.737 113.73C193.174 114.722 191.909 115.039 190.947 114.446L175.427 104.848C174.163 104.063 173.077 103.017 172.252 101.764C170.96 99.7809 170.19 97.7704 168.458 96.3658C167.042 95.2228 165.613 93.9559 165.187 93.6255C164.925 93.4189 163.675 94.3002 164.609 95.8838C164.898 96.3658 165.97 97.3435 166.273 97.7979C166.74 98.514 166.74 99.4504 166.218 100.125C165.654 100.841 165.2 101.984 165.819 103.582C166.74 105.95 168.843 106.528 170.025 106.666C170.616 106.735 171.166 107.024 171.565 107.479L185.875 123.907C188.101 126.454 191.813 127.033 194.686 125.27C199.346 122.42 205.339 116.677 209.655 109.434L200.445 103.044Z" fill="white"/>
<path d="M191.112 126.606C189.091 126.606 187.084 125.752 185.668 124.113L171.345 107.685C171.001 107.286 170.52 107.038 169.998 106.969C168.76 106.831 166.534 106.212 165.544 103.692C164.857 101.929 165.406 100.676 165.984 99.9323C166.424 99.3677 166.437 98.5828 166.025 97.9631C165.901 97.7841 165.599 97.4536 165.296 97.1369C164.912 96.7376 164.527 96.3244 164.348 96.0353C163.674 94.8923 164.004 93.9835 164.485 93.5566C164.802 93.2812 165.159 93.2123 165.379 93.3775C165.558 93.5153 165.929 93.832 166.382 94.2176C167.001 94.7408 167.84 95.4569 168.651 96.1179C169.915 97.1507 170.685 98.4726 171.482 99.8635C171.798 100.428 172.142 101.006 172.513 101.585C173.297 102.783 174.355 103.816 175.592 104.573L191.112 114.171C191.51 114.419 191.964 114.488 192.418 114.378C192.871 114.267 193.242 113.978 193.476 113.579C199.717 102.686 200.17 102.728 200.473 102.741C200.528 102.741 200.583 102.769 200.624 102.797L209.848 109.186C209.985 109.282 210.012 109.461 209.93 109.599C205.284 117.393 199.098 122.957 194.864 125.545C193.696 126.248 192.39 126.606 191.112 126.606ZM165.063 93.9146C164.98 93.9421 164.815 94.0661 164.705 94.2864C164.568 94.5618 164.485 95.0438 164.898 95.7323C165.035 95.9664 165.42 96.3658 165.764 96.7238C166.094 97.068 166.41 97.3985 166.561 97.6326C167.111 98.4726 167.083 99.5467 166.492 100.318C165.791 101.227 165.668 102.287 166.135 103.485C167.001 105.702 168.98 106.253 170.094 106.377C170.767 106.46 171.386 106.776 171.826 107.286L186.122 123.714C188.252 126.151 191.785 126.702 194.548 125.022C198.686 122.488 204.693 117.104 209.256 109.53L200.431 103.416C199.882 103.981 197.957 106.955 193.998 113.882C193.682 114.433 193.174 114.818 192.569 114.97C191.964 115.121 191.332 115.025 190.795 114.694L175.276 105.096C173.97 104.284 172.843 103.196 172.005 101.929C171.62 101.337 171.276 100.759 170.96 100.18C170.19 98.8307 169.462 97.5638 168.279 96.5998C167.455 95.9389 166.616 95.209 165.998 94.6857C165.585 94.3415 165.255 94.0523 165.063 93.9146Z" fill="#651FFF"/>
<path d="M253.684 116.54C253.684 116.54 254.714 97.4399 240.295 92.0694C229.133 87.9107 214.878 89.7009 210.411 91.2569C199.414 95.0851 193.998 109.641 193.998 109.641L206.892 111.458C206.892 111.458 203.002 153.293 204.692 162.616C204.692 162.616 215.071 163.841 219.47 162.092C223.868 160.343 238.343 157.892 245.257 161.101L243.993 116.361L253.684 116.54Z" fill="#651FFF"/>
<path d="M212.006 163.345C208.308 163.345 204.899 162.946 204.652 162.918C204.514 162.905 204.404 162.795 204.39 162.671C202.768 153.706 206.191 115.755 206.562 111.72L193.957 109.943C193.861 109.93 193.778 109.875 193.737 109.792C193.696 109.709 193.682 109.613 193.71 109.53C193.765 109.379 199.304 94.7959 210.315 90.9677C215.195 89.2739 229.477 87.7178 240.405 91.7801C246.398 94.0109 250.646 99.0096 252.694 106.225C254.234 111.665 254 116.498 253.986 116.553C253.972 116.718 253.849 116.842 253.684 116.842L244.309 116.663L245.56 161.087C245.56 161.197 245.505 161.294 245.422 161.349C245.34 161.404 245.216 161.418 245.12 161.376C238.219 158.181 223.91 160.66 219.58 162.381C217.697 163.125 214.769 163.345 212.006 163.345ZM204.954 162.34C206.493 162.505 215.428 163.359 219.346 161.803C223.649 160.096 237.711 157.658 244.928 160.619L243.69 116.36C243.69 116.278 243.718 116.195 243.773 116.14C243.828 116.085 243.924 116.058 243.993 116.044L253.381 116.223C253.423 113.799 253.244 97.2195 240.185 92.3585C229.394 88.3375 215.318 89.8798 210.507 91.546C200.72 94.9473 195.345 107.134 194.424 109.393L206.933 111.155C207.098 111.183 207.208 111.32 207.195 111.486C207.153 111.899 203.401 152.728 204.954 162.34Z" fill="white"/>
<path d="M235.718 152.191C235.704 152.191 235.676 152.191 235.663 152.191C218.837 149.189 213.916 137.374 213.861 137.264C213.793 137.112 213.875 136.933 214.026 136.865C214.178 136.796 214.356 136.878 214.425 137.03C214.466 137.14 219.277 148.652 235.759 151.585C235.924 151.613 236.034 151.778 236.006 151.943C235.993 152.081 235.855 152.191 235.718 152.191Z" fill="white"/>
<path d="M204.954 131.921H226.081L219.47 108.139H198.342L204.954 131.921Z" fill="white"/>
<path d="M226.082 132.238H204.954C204.816 132.238 204.693 132.141 204.665 132.017L198.053 108.222C198.026 108.126 198.04 108.029 198.108 107.96C198.163 107.878 198.26 107.836 198.356 107.836H219.47C219.607 107.836 219.731 107.933 219.758 108.057L226.37 131.852C226.398 131.949 226.384 132.045 226.315 132.114C226.26 132.183 226.178 132.238 226.082 132.238ZM205.188 131.618H225.669L219.222 108.442H198.741L205.188 131.618Z" fill="#651FFF"/>
<path d="M251.182 116.553L241.89 116.126C241.89 116.126 241.821 124.017 240.983 124.155C238 124.65 231.746 124.678 227.677 124.182C226.261 124.003 225.134 122.915 224.872 121.497C224.666 120.423 224.103 119.17 222.646 118.275C221.244 117.407 222.632 120.147 221.312 121.91C220.611 122.86 218.371 122.433 215.319 121.731C212.267 121.015 211.498 124.306 214.907 126.289C218.618 128.437 220.969 128.203 222.151 128.451C224.501 128.947 245.313 132.238 248.529 130.475C251.004 129.14 251.182 116.553 251.182 116.553Z" fill="white"/>
<path d="M244.488 131.329C237.065 131.329 223.264 129.029 222.082 128.768C221.848 128.713 221.546 128.685 221.188 128.644C219.8 128.506 217.711 128.286 214.742 126.564C212.583 125.311 212.061 123.604 212.487 122.53C212.803 121.745 213.724 121.043 215.374 121.428C218.123 122.075 220.446 122.53 221.051 121.731C221.642 120.946 221.628 119.9 221.628 119.142C221.628 118.509 221.615 118.054 221.958 117.875C222.247 117.71 222.577 117.889 222.797 118.027C224.075 118.825 224.886 120.01 225.161 121.456C225.409 122.75 226.426 123.728 227.704 123.893C231.718 124.375 237.849 124.375 240.873 123.865C241.271 123.383 241.546 119.514 241.574 116.126C241.574 116.044 241.615 115.961 241.67 115.906C241.725 115.851 241.808 115.823 241.89 115.823L251.182 116.25C251.347 116.264 251.471 116.402 251.471 116.567C251.457 117.875 251.224 129.374 248.653 130.778C247.952 131.164 246.44 131.329 244.488 131.329ZM214.522 121.951C213.807 121.951 213.284 122.241 213.078 122.764C212.748 123.59 213.243 124.967 215.071 126.027C217.931 127.694 219.938 127.886 221.271 128.024C221.642 128.065 221.958 128.093 222.219 128.148C224.611 128.658 245.299 131.894 248.378 130.214C250.234 129.195 250.798 120.492 250.866 116.829L242.192 116.429C242.179 117.077 242.151 118.578 242.055 120.092C241.821 123.989 241.423 124.375 241.038 124.444C237.986 124.953 231.718 124.967 227.649 124.471C226.11 124.279 224.872 123.108 224.584 121.538C224.336 120.244 223.635 119.225 222.494 118.523C222.398 118.467 222.329 118.426 222.288 118.412C222.261 118.55 222.261 118.881 222.261 119.115C222.261 119.913 222.274 121.125 221.573 122.075C220.749 123.191 218.439 122.75 215.264 122.006C214.989 121.979 214.742 121.951 214.522 121.951Z" fill="#651FFF"/>
<path d="M219.195 91.601C219.195 91.601 221.6 90.1138 221.573 89.2463L222.26 84.7984C222.26 84.3853 222.013 84.0272 221.642 83.8895L218.796 82.9118C218.439 82.7879 218.205 82.4299 218.219 82.0305L218.439 78.4915L217.325 77.5C217.243 77.4174 217.229 77.2935 217.298 77.1971L219.057 75.0489C219.635 74.2364 220.212 72.2948 220.679 72.4325C220.679 72.4325 230.714 71.2758 231.195 76.3433C231.264 77.0731 231.044 77.803 230.618 78.4089L229.724 79.662C228.831 80.9289 228.364 82.4712 228.515 84.0135C228.542 84.3302 228.968 86.3958 229.243 87.759C229.408 88.5302 229.834 89.2187 230.453 89.7007C231.236 90.3066 232.185 91.0777 232.034 91.119C232.034 91.119 230.92 91.9315 229.175 92.6613C226.054 93.942 222.521 93.6253 219.635 91.8626L219.195 91.601Z" fill="white"/>
<path d="M225.256 93.7631C223.263 93.7631 221.27 93.2122 219.524 92.1381L219.043 91.849C218.947 91.7939 218.892 91.6975 218.892 91.5873C218.892 91.4772 218.947 91.3808 219.043 91.3257C220.129 90.6509 221.284 89.6732 221.284 89.2463C221.284 89.2326 221.284 89.205 221.284 89.1913L221.971 84.7709C221.971 84.5093 221.806 84.2614 221.559 84.1788L218.713 83.2011C218.218 83.0221 217.902 82.5401 217.93 82.0168L218.136 78.6293L217.132 77.7342C216.926 77.5414 216.899 77.2247 217.077 77.0044L218.837 74.8562C219.029 74.5945 219.236 74.1263 219.442 73.6857C219.868 72.7768 220.212 72.047 220.706 72.1159C221.353 72.047 227.318 71.4686 230.109 73.727C230.947 74.4018 231.415 75.2693 231.511 76.3021C231.593 77.087 231.36 77.8995 230.879 78.5742L229.985 79.8273C229.105 81.0804 228.693 82.5539 228.83 83.9722C228.844 84.1099 228.954 84.7709 229.559 87.6903C229.696 88.3926 230.095 89.0122 230.659 89.4529C232.432 90.8162 232.404 90.9401 232.377 91.1604C232.363 91.2431 232.308 91.3257 232.239 91.367C232.198 91.3945 231.085 92.2208 229.311 92.9506C228.019 93.5014 226.645 93.7631 225.256 93.7631ZM219.772 91.5873L219.827 91.6286C222.631 93.3499 226.095 93.6391 229.092 92.3998C230.315 91.8903 231.236 91.3395 231.648 91.064C231.47 90.8988 231.085 90.5683 230.301 89.9624C229.614 89.4391 229.147 88.6817 228.982 87.828C228.528 85.5696 228.281 84.3027 228.253 84.0411C228.088 82.4713 228.542 80.8601 229.518 79.4831L230.411 78.2299C230.81 77.6654 230.989 77.0044 230.934 76.3709C230.851 75.5034 230.466 74.7873 229.751 74.2227C227.057 72.047 220.816 72.7355 220.748 72.7493C220.72 72.7493 220.706 72.7493 220.693 72.7493C220.528 72.8732 220.212 73.548 220.019 73.9611C219.799 74.4293 219.579 74.9113 219.346 75.2418L217.627 77.3486L218.672 78.285C218.741 78.3539 218.782 78.4365 218.768 78.5329L218.548 82.0719C218.535 82.3198 218.686 82.5539 218.919 82.6365L221.765 83.6142C222.274 83.7932 222.603 84.2752 222.59 84.8122C222.59 84.826 222.59 84.8398 222.59 84.8536L221.902 89.2739C221.875 90.0726 220.528 91.0916 219.772 91.5873Z" fill="#651FFF"/>
<path d="M220.363 64.7212C222.645 64.5973 219.758 66.9658 228.226 64.5284C231.594 63.5507 229.862 67.5166 230.741 67.2688C233.972 66.3461 233.862 66.3737 235.429 66.8006C236.473 67.0897 237.133 69.0314 236.927 70.491C236.652 72.4051 234.508 75.4484 232.583 78.6707C231.594 80.3369 229.82 80.4884 227.69 78.0097C227.456 77.7481 228.624 76.192 228.02 75.5173C226.453 73.7684 225.751 76.4124 224.473 75.5999C223.25 74.815 222.755 74.3192 221.463 73.135C219.909 71.7028 217.284 73.9337 216.377 70.7114C215.923 69.0451 217.229 64.8865 220.363 64.7212Z" fill="#651FFF"/>
<path d="M145.53 240.268C145.53 240.268 146.231 240.268 146.904 239.799C148.98 238.326 153.296 235.035 156.238 235.448C161.173 236.136 161.75 240.171 161.75 240.171C161.75 240.171 165.915 240.02 165.833 242.788C165.764 244.922 164.554 247.621 161.2 249.108C156.609 251.132 152.018 252.689 146.946 249.356C145.956 248.709 144.788 248.406 143.619 248.53C140.774 248.819 98.2846 249.728 98.2846 249.728C88.5661 249.728 79.6449 244.33 75.1362 235.696L66.1875 218.579L76.4421 189.854L92.525 227.296C100.305 237.968 144.719 240.46 145.53 240.268Z" fill="white"/>
<path d="M153.118 251.587C151.056 251.587 148.939 251.05 146.754 249.604C145.819 248.984 144.705 248.709 143.633 248.819C140.801 249.108 100.003 249.989 98.2711 250.031C88.4014 250.031 79.4253 244.591 74.8478 235.847L65.8991 218.73C65.8579 218.648 65.8579 218.565 65.8854 218.483L76.1399 189.757C76.1812 189.633 76.2912 189.565 76.4149 189.551C76.5386 189.537 76.6623 189.62 76.7035 189.73L92.7864 227.158C100.347 237.389 143.757 240.185 145.475 239.965C145.503 239.965 145.503 239.965 145.53 239.965C145.544 239.965 146.149 239.951 146.726 239.551L147.207 239.207C149.53 237.541 153.42 234.746 156.28 235.145C160.637 235.751 161.764 238.918 161.998 239.868C162.672 239.882 164.445 240.006 165.448 240.997C165.929 241.479 166.163 242.085 166.136 242.801C166.108 243.862 165.668 247.469 161.311 249.397C158.699 250.54 155.977 251.587 153.118 251.587ZM144.101 248.199C145.145 248.199 146.204 248.516 147.097 249.108C152.06 252.372 156.541 250.843 161.063 248.833C165.077 247.056 165.489 243.751 165.517 242.788C165.531 242.237 165.366 241.796 165.008 241.438C163.977 240.419 161.778 240.488 161.751 240.488H161.737C161.586 240.488 161.462 240.378 161.434 240.226C161.407 240.075 160.816 236.412 156.183 235.765C153.572 235.407 149.654 238.216 147.551 239.717L147.07 240.061C146.327 240.584 145.544 240.584 145.516 240.584C144.458 240.639 133.351 240.033 121.584 238.174C110.478 236.412 96.3742 233.134 92.2641 227.502C92.2504 227.489 92.2366 227.461 92.2366 227.447L76.4561 190.721L66.5039 218.579L75.3977 235.572C79.8789 244.123 88.6351 249.439 98.2711 249.439C98.6835 249.425 140.774 248.516 143.578 248.241C143.743 248.199 143.922 248.199 144.101 248.199Z" fill="#651FFF"/>
<path d="M134.368 232.57L138.478 225.368L141.846 227.557C142.038 227.681 142.19 227.847 142.3 228.039L142.506 228.384C142.753 228.824 143.234 229.086 143.729 229.086C144.004 229.086 144.265 229.155 144.499 229.306L169.586 245.583C169.792 245.721 169.984 245.872 170.149 246.065L175.221 251.697L168.17 250.1C167.785 250.017 167.414 249.879 167.056 249.687L140.664 235.861C140.444 235.737 140.251 235.572 140.114 235.352L140.087 235.296C139.825 234.883 139.372 234.622 138.891 234.622H138.643C138.423 234.622 138.203 234.567 137.997 234.456L134.368 232.57Z" fill="white"/>
<path d="M175.208 252C175.18 252 175.167 252 175.139 251.986L168.087 250.389C167.675 250.293 167.276 250.155 166.905 249.948L140.513 236.123C140.238 235.985 140.004 235.765 139.839 235.503L139.812 235.448C139.619 235.117 139.262 234.925 138.891 234.925H138.643C138.368 234.925 138.107 234.856 137.86 234.732L134.245 232.832C134.176 232.79 134.121 232.721 134.093 232.653C134.066 232.57 134.08 232.487 134.121 232.418L138.231 225.216C138.272 225.148 138.341 225.093 138.423 225.065C138.506 225.051 138.588 225.065 138.657 225.106L142.025 227.296C142.245 227.447 142.437 227.64 142.575 227.874L142.781 228.218C142.973 228.563 143.331 228.769 143.729 228.769C143.743 228.769 143.757 228.769 143.757 228.769C144.087 228.769 144.403 228.866 144.678 229.045L169.764 245.321C169.998 245.473 170.204 245.652 170.383 245.858L175.455 251.491C175.552 251.587 175.565 251.738 175.497 251.849C175.414 251.945 175.318 252 175.208 252ZM138.877 234.319C139.468 234.319 140.018 234.635 140.32 235.131L140.348 235.186C140.458 235.352 140.595 235.489 140.774 235.586L167.166 249.411C167.496 249.576 167.84 249.714 168.197 249.797L174.314 251.174L169.888 246.258C169.737 246.093 169.572 245.955 169.393 245.831L144.307 229.554C144.128 229.43 143.922 229.375 143.702 229.375H143.688C143.083 229.375 142.52 229.045 142.217 228.521L142.011 228.177C141.929 228.026 141.805 227.902 141.654 227.805L138.547 225.795L134.753 232.446L138.094 234.195C138.245 234.277 138.423 234.319 138.602 234.319H138.877C138.877 234.319 138.863 234.319 138.877 234.319Z" fill="#651FFF"/>
<path d="M168.307 249.067C168.266 249.067 168.211 249.053 168.17 249.04C168.018 248.957 167.963 248.778 168.032 248.626L169.544 245.707C169.627 245.556 169.805 245.5 169.957 245.569C170.108 245.652 170.163 245.831 170.094 245.982L168.582 248.902C168.527 249.012 168.417 249.067 168.307 249.067Z" fill="#651FFF"/>
<path d="M132.622 221.801L138.602 225.423L134.382 232.611L128.402 228.99C127.303 228.329 126.932 226.91 127.564 225.836L129.488 222.545C130.134 221.471 131.537 221.14 132.622 221.801Z" fill="#651FFF"/>
<path d="M134.396 232.928C134.341 232.928 134.286 232.914 134.231 232.887L128.251 229.265C127.014 228.521 126.588 226.91 127.303 225.698L129.227 222.407C129.571 221.829 130.121 221.416 130.781 221.237C131.454 221.072 132.169 221.168 132.774 221.54L138.753 225.161C138.891 225.244 138.946 225.437 138.863 225.574L134.643 232.763C134.602 232.832 134.533 232.887 134.451 232.9C134.437 232.914 134.41 232.928 134.396 232.928ZM131.427 221.774C131.262 221.774 131.097 221.788 130.946 221.829C130.451 221.953 130.025 222.27 129.777 222.71L127.853 226.001C127.303 226.938 127.633 228.163 128.581 228.742L134.3 232.198L138.203 225.533L132.485 222.077C132.141 221.87 131.784 221.774 131.427 221.774Z" fill="#651FFF"/>
<path d="M140.28 233.906C140.225 233.906 140.17 233.892 140.128 233.864C139.977 233.782 139.936 233.589 140.018 233.437L142.053 230.05C142.135 229.898 142.328 229.857 142.479 229.94C142.63 230.022 142.671 230.215 142.589 230.367L140.554 233.754C140.486 233.851 140.376 233.906 140.28 233.906Z" fill="#651FFF"/>
<path d="M152.28 236.77C152.225 236.77 152.17 236.756 152.115 236.729L144.623 232.019C144.486 231.923 144.431 231.744 144.527 231.592C144.623 231.454 144.802 231.399 144.953 231.496L152.445 236.205C152.582 236.302 152.637 236.481 152.541 236.632C152.486 236.715 152.376 236.77 152.28 236.77Z" fill="#651FFF"/>
<path d="M167.881 246.464C167.826 246.464 167.771 246.45 167.716 246.423L164.788 244.605C164.651 244.509 164.596 244.33 164.692 244.178C164.788 244.041 164.967 243.986 165.118 244.082L168.046 245.9C168.183 245.996 168.238 246.175 168.142 246.327C168.087 246.409 167.991 246.464 167.881 246.464Z" fill="#651FFF"/>
<path d="M133.722 230.036C133.667 230.036 133.612 230.022 133.557 229.995L129.007 227.199C128.869 227.117 128.815 226.924 128.911 226.773C128.993 226.621 129.186 226.58 129.337 226.676L133.887 229.472C134.024 229.554 134.079 229.747 133.983 229.898C133.928 229.981 133.832 230.036 133.722 230.036Z" fill="white"/>
<path d="M145.531 240.268C145.531 240.268 151.648 239.51 155.551 240.047C158.589 240.474 167.579 238.312 165.696 244.137C165.297 245.39 165.077 246.23 163.964 247.414C163.359 248.062 161.696 249.397 160.747 249.81C156.156 251.835 151.991 252.689 146.919 249.356C145.943 248.709 144.774 248.42 143.606 248.53C142.933 248.599 145.311 240.323 145.531 240.268Z" fill="white"/>
<path d="M153.751 251.89C151.51 251.89 149.228 251.229 146.74 249.59C145.819 248.984 144.719 248.709 143.633 248.819C142.891 248.888 140.486 248.984 140.389 248.984C140.224 248.998 140.073 248.86 140.073 248.681C140.073 248.516 140.197 248.365 140.376 248.365C140.403 248.365 142.85 248.282 143.578 248.199C144.802 248.075 146.053 248.378 147.084 249.067C151.95 252.262 155.867 251.601 160.624 249.508C161.503 249.122 163.139 247.828 163.744 247.18C164.734 246.134 164.967 245.39 165.325 244.275L165.407 244.027C165.751 242.953 165.723 242.154 165.311 241.603C164.404 240.378 161.682 240.46 159.29 240.529C157.792 240.571 156.362 240.612 155.455 240.323C150.836 238.877 145.668 240.529 145.627 240.543C145.365 240.598 144.706 240.584 143.139 240.474C142.974 240.46 142.836 240.323 142.85 240.144C142.864 239.978 143.001 239.841 143.18 239.854C144.541 239.951 145.31 239.978 145.462 239.937C145.654 239.868 150.823 238.23 155.648 239.717C156.459 239.965 157.833 239.937 159.277 239.896C161.82 239.827 164.706 239.744 165.806 241.218C166.342 241.934 166.397 242.925 165.998 244.192L165.916 244.44C165.545 245.597 165.284 246.423 164.198 247.58C163.565 248.254 161.861 249.618 160.885 250.045C158.411 251.174 156.101 251.89 153.751 251.89Z" fill="#651FFF"/>
<path d="M51.3832 169.749C51.3832 169.749 70.2428 172.255 76.4973 179.898C84.4287 189.578 87.8515 203.969 88.9512 210.179C89.2811 212.011 89.2399 213.883 88.8412 215.687L88.3739 217.767C86.7518 225.093 80.0712 230.174 72.5934 229.788H72.9645C71.7549 229.719 69.9954 229.32 69.473 228.218L67.4936 224.597L67.3011 225.905C65.8166 235.544 73.5831 248.737 73.5831 248.737L51.287 245.721C39.8227 244.564 28.9221 240.047 20.1796 232.542C15.4234 228.466 11.7532 224.652 10.1724 220.025C7.4782 212.162 7.72563 209.931 6.9696 200.388C6.461 193.902 8.35795 187.403 12.4268 182.321C18.4201 174.858 29.9118 167.022 51.3832 169.749Z" fill="white"/>
<path d="M73.5966 249.039C73.5828 249.039 73.5691 249.039 73.5553 249.039L51.2592 246.024C39.5338 244.839 28.7294 240.268 20.0006 232.776C15.7668 229.141 11.6018 225.093 9.91101 220.135C7.6429 213.498 7.45046 210.854 6.99684 204.478C6.91436 203.28 6.81814 201.944 6.69443 200.416C6.17207 193.737 8.12402 187.251 12.2203 182.142C18.0762 174.816 29.6229 166.678 51.4379 169.446C52.2077 169.542 70.49 172.049 76.7444 179.705C85.157 189.978 88.4561 205.58 89.2671 210.124C89.597 211.997 89.5695 213.897 89.1434 215.756L88.676 217.835C87.0127 225.34 80.2359 230.491 72.5794 230.091C72.5244 230.091 72.4831 230.077 72.4419 230.05C71.1085 229.898 69.6927 229.389 69.2116 228.356L67.6858 225.561L67.6308 225.96C66.1737 235.379 73.8028 248.461 73.8715 248.585C73.9265 248.681 73.9265 248.819 73.8577 248.915C73.8028 248.984 73.7065 249.039 73.5966 249.039ZM43.0253 169.501C26.7912 169.501 17.65 176.304 12.674 182.514C8.68761 187.499 6.7769 193.847 7.28551 200.361C7.40922 201.889 7.50544 203.225 7.58792 204.423C8.04154 210.744 8.22024 213.346 10.4746 219.915C12.1241 224.734 16.2205 228.714 20.3855 232.294C29.0181 239.703 39.7125 244.234 51.3279 245.404L73.0192 248.337C71.5622 245.721 65.6788 234.484 67.0122 225.85L67.2046 224.542C67.2184 224.404 67.3284 224.308 67.4521 224.28C67.5758 224.253 67.7133 224.321 67.782 224.432L69.7614 228.053C70.2013 228.99 71.7821 229.389 72.9917 229.458C73.0192 229.458 73.0467 229.472 73.0742 229.472C80.2359 229.637 86.5179 224.734 88.0849 217.67L88.5523 215.591C88.9509 213.814 88.9922 211.997 88.6623 210.207C87.8513 205.704 84.5797 190.226 76.2633 180.063C70.1463 172.599 51.5341 170.052 51.3417 170.024C48.3863 169.68 45.6096 169.501 43.0253 169.501Z" fill="#651FFF"/>
<path d="M68.7855 228.301C68.6755 228.301 68.5655 228.232 68.5106 228.122L63.2321 217.023C63.1633 216.871 63.2183 216.692 63.3833 216.61C63.5345 216.541 63.7132 216.596 63.7957 216.761L69.0741 227.874C69.1429 228.026 69.0879 228.205 68.9229 228.287C68.868 228.301 68.8267 228.301 68.7855 228.301Z" fill="#651FFF"/>
<path d="M54.3386 131.921L55.7269 130.999C56.8404 130.255 57.3077 128.851 56.8404 127.597C55.452 123.838 50.3797 117.27 31.9325 122.254C13.1279 127.336 16.4544 157.576 32.4686 164.034C48.4965 170.492 53.94 137.278 53.94 137.278L54.3386 131.921Z" fill="#651FFF"/>
<path d="M52.0289 132.61C52.2488 131.453 53.7746 131.205 54.352 132.224C55.7541 134.703 56.4276 136.424 56.6613 137.471C56.9637 138.889 55.6579 140.294 56.3589 141.809C57.06 143.324 58.1734 145.045 58.2696 147.771C58.3658 150.429 61.0601 162.644 51.6028 162.258C51.2316 162.244 50.9155 162.533 50.9292 162.905C50.9567 164.764 51.0529 169.873 51.4653 172.641C51.6852 174.142 50.7505 175.588 49.2934 176.001C45.4995 177.075 38.4478 178.576 33.1693 176.868C31.7947 176.428 31.0799 174.913 31.561 173.55C32.1796 171.815 33.0593 166.94 32.482 164.034C32.482 164.034 35.6436 163.718 39.1626 162.106C44.5785 159.614 47.2315 153.569 45.7469 147.785C45.4308 146.546 44.7297 144.783 45.4583 142.91C47.3277 138.091 50.1182 142.938 50.1182 142.938L52.0289 132.61Z" fill="white"/>
<path d="M38.7231 177.942C36.7574 177.942 34.8192 177.722 33.0598 177.144C32.3175 176.91 31.7264 176.386 31.3827 175.684C31.0391 174.982 30.9978 174.169 31.259 173.426C31.8638 171.746 32.7298 166.926 32.1663 164.076C32.1525 163.993 32.1663 163.897 32.2212 163.828C32.2762 163.759 32.345 163.718 32.4412 163.704C32.4687 163.704 35.6028 163.373 39.0255 161.803C44.2216 159.421 46.9158 153.541 45.4312 147.84C45.39 147.675 45.335 147.496 45.2938 147.317C44.9501 146.119 44.4965 144.494 45.1563 142.773C45.7336 141.299 46.4622 140.514 47.3557 140.445C48.4416 140.363 49.4176 141.409 49.9537 142.112L51.7407 132.541C51.8644 131.894 52.3592 131.398 53.0191 131.288C53.6789 131.178 54.3112 131.481 54.6411 132.059C56.2219 134.841 56.7855 136.493 56.9779 137.388C57.1291 138.091 56.9367 138.765 56.7442 139.413C56.5243 140.184 56.3044 140.914 56.648 141.657C56.758 141.905 56.8954 142.167 57.0192 142.428C57.679 143.75 58.5037 145.389 58.5862 147.73C58.6 148.047 58.6549 148.542 58.7099 149.121C59.0398 152.123 59.6584 157.727 56.9092 160.674C55.672 162.01 53.8713 162.63 51.5895 162.533C51.4932 162.533 51.397 162.561 51.3283 162.63C51.2596 162.698 51.2321 162.781 51.2321 162.878C51.2596 164.888 51.3558 169.859 51.7682 172.572C52.0156 174.224 50.9846 175.808 49.3763 176.262C46.8058 177.02 42.737 177.942 38.7231 177.942ZM32.8261 164.296C33.2934 167.312 32.4549 171.938 31.8364 173.66C31.6302 174.252 31.6577 174.872 31.9326 175.436C32.2075 175.987 32.6611 176.386 33.2522 176.579C38.462 178.273 45.4862 176.772 49.1976 175.712C50.5173 175.34 51.3558 174.045 51.1496 172.696C50.7372 169.942 50.641 164.943 50.6135 162.919C50.6135 162.657 50.7097 162.409 50.9022 162.23C51.0946 162.051 51.342 161.955 51.617 161.955C53.7201 162.037 55.3559 161.473 56.4693 160.289C59.0123 157.548 58.4213 152.137 58.1051 149.231C58.0364 148.625 57.9814 148.143 57.9676 147.799C57.8852 145.596 57.1291 144.081 56.4693 142.745C56.3319 142.47 56.2081 142.208 56.0844 141.96C55.6446 141.01 55.9057 140.087 56.1394 139.289C56.3181 138.683 56.4831 138.104 56.3594 137.554C56.2081 136.851 55.7133 135.254 54.0912 132.39C53.8438 131.963 53.4177 131.866 53.1015 131.921C52.7854 131.977 52.4142 132.197 52.3318 132.679L50.4073 142.993C50.3798 143.117 50.2836 143.213 50.1599 143.241C50.0362 143.268 49.9124 143.199 49.8437 143.089C49.5001 142.511 48.4141 141.01 47.3969 141.079C46.7646 141.134 46.201 141.781 45.7336 143.02C45.1426 144.549 45.5549 145.995 45.8848 147.179C45.9398 147.372 45.9948 147.551 46.036 147.716C47.5894 153.706 44.7439 159.876 39.2867 162.396C36.3726 163.718 33.7333 164.172 32.8261 164.296Z" fill="#651FFF"/>
<path d="M24.3581 128.355C24.3581 128.355 15.107 123.934 8.3714 130.255C1.63583 136.576 -4.87981 150.484 5.20981 165.659C11.5605 175.188 13.9935 182.734 14.9283 187.017C15.2444 188.449 17.1139 188.807 17.9387 187.595C22.0075 181.481 29.4166 168 25.8289 155.345C20.9903 138.27 24.3581 128.355 24.3581 128.355Z" fill="#651FFF"/>
<path d="M58.2967 146.573C58.1868 146.573 58.0905 146.518 58.0356 146.422C57.9531 146.27 57.9943 146.091 58.1455 145.995C61.1834 144.163 59.2177 139.013 58.6679 137.733L50.0766 142.125C49.9254 142.208 49.7467 142.139 49.6642 141.988C49.5817 141.836 49.6504 141.657 49.8017 141.575L58.6816 137.03C58.7503 136.989 58.8466 136.989 58.9153 137.017C58.9978 137.044 59.0528 137.099 59.094 137.168C59.2315 137.457 62.3931 144.15 58.4617 146.504C58.4067 146.559 58.3517 146.573 58.2967 146.573Z" fill="#651FFF"/>
<path d="M58.5442 150.112C58.4617 150.112 58.393 150.085 58.3242 150.016C58.2005 149.892 58.2005 149.699 58.3242 149.575L59.5339 148.377C59.905 148.005 59.9463 147.441 59.6439 147.014L58.8053 145.843C58.7091 145.706 58.7366 145.513 58.8741 145.416C59.0115 145.32 59.204 145.348 59.3002 145.485L60.1387 146.656C60.6198 147.331 60.5374 148.226 59.96 148.818L58.7504 150.016C58.6954 150.085 58.6129 150.112 58.5442 150.112Z" fill="#651FFF"/>
<path d="M48.7991 151.173C48.6066 151.173 48.3867 151.145 48.1668 151.09C47.1221 150.828 46.2148 149.933 45.4863 148.418C45.4176 148.267 45.4725 148.088 45.6237 148.005C45.775 147.937 45.9537 147.992 46.0361 148.143C46.6822 149.479 47.4382 150.264 48.3042 150.484C49.2252 150.718 49.9675 150.195 49.9813 150.181C50.1187 150.085 50.3112 150.112 50.4074 150.25C50.5036 150.388 50.4761 150.58 50.3387 150.677C50.3112 150.704 49.6788 151.173 48.7991 151.173Z" fill="#651FFF"/>
<path d="M22.0352 127.529C22.0352 127.529 30.6402 130.118 27.1212 138.38C27.1212 138.38 31.0938 135.502 30.9976 131.026C30.9014 126.551 27.5748 125.078 25.3617 125.133C23.1486 125.188 22.0352 127.529 22.0352 127.529Z" fill="white"/>
<path d="M27.1077 138.683C27.039 138.683 26.9703 138.655 26.9153 138.614C26.8053 138.531 26.7641 138.38 26.8191 138.256C27.8225 135.901 27.905 133.808 27.0802 132.032C25.6506 128.975 21.9804 127.832 21.9392 127.818C21.8567 127.79 21.788 127.735 21.7467 127.653C21.7055 127.57 21.7055 127.474 21.7467 127.391C21.8017 127.294 22.9564 124.871 25.3345 124.816C26.6953 124.788 28.0837 125.27 29.1421 126.138C30.0906 126.909 31.2178 128.382 31.2728 131.013C31.3828 135.612 27.4376 138.504 27.2727 138.628C27.2314 138.669 27.1764 138.683 27.1077 138.683ZM22.4753 127.35C23.4925 127.735 26.3517 129.016 27.6301 131.77C28.3999 133.422 28.4548 135.295 27.8088 137.347C28.9359 136.232 30.7367 133.973 30.668 131.026C30.6267 129.126 29.9669 127.597 28.7572 126.606C27.8225 125.835 26.5441 125.408 25.3482 125.422C23.8224 125.477 22.8464 126.757 22.4753 127.35Z" fill="#651FFF"/>
<path d="M5.63553 198.157C12.7285 202.454 27.1619 208.582 50.4065 207.163C52.111 207.053 53.6918 208.072 54.2966 209.683L55.74 215.494C58.283 225.712 63.0804 235.227 69.761 243.352L73.225 247.566C73.7611 248.213 73.2525 249.191 72.414 249.122L57.1008 247.993C30.8046 244.509 10.3779 231.303 3.83479 207.232L2.08904 200.815C1.52545 198.736 3.77981 197.042 5.63553 198.157Z" fill="#651FFF"/>
<path d="M150.135 34.4539H200.57C203.429 34.4539 205.614 36.7811 205.614 39.6453V54.2696C205.614 57.1339 203.429 59.4473 200.57 59.4473C200.542 59.4473 199.772 59.4473 198.741 59.4473V69.2106L192.102 59.4473C182.452 59.4473 150.121 59.4473 150.121 59.4473C147.262 59.4473 144.815 57.1339 144.815 54.2696V39.6453C144.843 36.7811 147.276 34.4539 150.135 34.4539Z" fill="white"/>
<path d="M198.755 69.5135C198.658 69.5135 198.562 69.4584 198.507 69.3758L191.964 59.7502H150.148C147.111 59.7502 144.54 57.244 144.54 54.2696V39.6453C144.54 36.6709 147.111 34.1509 150.148 34.1509H200.583C203.579 34.1509 205.93 36.5607 205.93 39.6453V54.2696C205.93 57.3404 203.579 59.7502 200.583 59.7502H199.071V69.2105C199.071 69.3483 198.988 69.4584 198.851 69.4997C198.81 69.5135 198.782 69.5135 198.755 69.5135ZM150.135 34.7706C147.427 34.7706 145.145 37.0014 145.145 39.6453V54.2696C145.145 56.8997 147.427 59.1305 150.135 59.1305H192.115C192.211 59.1305 192.308 59.1856 192.363 59.2683L198.438 68.2053V59.4335C198.438 59.2683 198.576 59.1305 198.741 59.1305H200.569C203.222 59.1305 205.298 56.9961 205.298 54.2696V39.6453C205.298 36.905 203.222 34.7706 200.569 34.7706H150.135Z" fill="#651FFF"/>
<path d="M169.077 50.5792C169.036 50.5792 168.995 50.5654 168.953 50.5516L162.012 47.3982C161.902 47.3431 161.833 47.233 161.833 47.1228C161.833 46.9989 161.902 46.8887 162.012 46.8474L168.953 43.6664C169.105 43.5975 169.283 43.6664 169.366 43.8179C169.435 43.9694 169.366 44.1484 169.215 44.231L162.878 47.1228L169.215 50.0008C169.366 50.0697 169.435 50.2487 169.366 50.4139C169.311 50.5103 169.201 50.5792 169.077 50.5792Z" fill="#651FFF"/>
<path d="M179.029 50.579C178.919 50.579 178.795 50.5102 178.754 50.4C178.686 50.2485 178.754 50.0695 178.905 49.9869L185.242 47.1089L178.905 44.2171C178.754 44.1482 178.686 43.9692 178.754 43.804C178.823 43.6525 179.002 43.5836 179.167 43.6525L186.108 46.8335C186.218 46.8886 186.287 46.9987 186.287 47.1089C186.287 47.2328 186.218 47.343 186.108 47.3843L179.167 50.5377C179.112 50.5653 179.07 50.579 179.029 50.579Z" fill="#651FFF"/>
<path d="M171.167 54.2833C171.125 54.2833 171.098 54.2833 171.057 54.2696C170.892 54.2145 170.823 54.0355 170.878 53.8702L176.28 39.7004C176.335 39.5351 176.514 39.4663 176.679 39.5214C176.83 39.5764 176.913 39.7555 176.858 39.9207L171.455 54.0905C171.4 54.2007 171.29 54.2833 171.167 54.2833Z" fill="#651FFF"/>
<path d="M161.241 225.216C161.117 225.216 161.007 225.147 160.966 225.037C160.897 224.886 160.966 224.707 161.117 224.638C176.939 217.615 191.29 206.241 202.603 191.74C202.713 191.603 202.905 191.589 203.029 191.685C203.167 191.795 203.18 191.988 203.084 192.112C191.702 206.695 177.269 218.125 161.365 225.189C161.324 225.203 161.282 225.216 161.241 225.216Z" fill="#651FFF"/>
<path d="M159.729 233.313C159.605 233.313 159.496 233.245 159.441 233.121C159.386 232.969 159.454 232.79 159.619 232.721C174.836 226.814 188.472 217.436 200.143 204.85C200.253 204.726 200.459 204.712 200.583 204.836C200.706 204.946 200.72 205.139 200.596 205.277C188.857 217.932 175.152 227.351 159.839 233.3C159.798 233.3 159.757 233.313 159.729 233.313Z" fill="#651FFF"/>
<path d="M92.6617 10.3968C92.5242 10.3968 92.4005 10.3004 92.3593 10.1627C92.318 9.99748 92.428 9.83223 92.593 9.79092C108.428 6.12797 124.126 5.8801 139.233 9.06109C139.398 9.1024 139.508 9.25387 139.467 9.41912C139.426 9.58437 139.275 9.69453 139.11 9.65322C124.085 6.49977 108.483 6.74764 92.7442 10.3831C92.7167 10.3968 92.6892 10.3968 92.6617 10.3968Z" fill="#651FFF"/>
<path d="M145.117 3.99349C145.09 3.99349 145.062 3.99349 145.035 3.97972C132.1 0.619718 118.56 -0.234052 104.786 1.45972C104.621 1.47349 104.47 1.36332 104.443 1.19808C104.429 1.03283 104.539 0.881358 104.704 0.853817C118.56 -0.853724 132.182 4.62015e-05 145.2 3.38759C145.365 3.4289 145.461 3.59414 145.42 3.75939C145.378 3.89709 145.255 3.99349 145.117 3.99349Z" fill="#651FFF"/>
<path d="M153.805 227.929C154.936 227.929 155.853 227.011 155.853 225.877C155.853 224.744 154.936 223.826 153.805 223.826C152.674 223.826 151.757 224.744 151.757 225.877C151.757 227.011 152.674 227.929 153.805 227.929Z" fill="#651FFF"/>
<path d="M11.1201 105.909C11.0376 105.909 10.9689 105.881 10.9139 105.826C10.7902 105.702 10.7902 105.51 10.9002 105.386L12.0273 104.201C12.1511 104.078 12.3435 104.078 12.4672 104.188C12.5909 104.312 12.5909 104.504 12.481 104.628L11.3538 105.813C11.2851 105.868 11.2026 105.909 11.1201 105.909Z" fill="#651FFF"/>
<path d="M7.17479 110.04C7.09232 110.04 7.02359 110.013 6.9686 109.957C6.84489 109.834 6.84489 109.641 6.95486 109.517L8.08204 108.333C8.20575 108.209 8.3982 108.209 8.52191 108.319C8.64562 108.443 8.64562 108.635 8.53566 108.759L7.40848 109.944C7.33975 109.999 7.25727 110.04 7.17479 110.04Z" fill="#651FFF"/>
<path d="M8.28861 105.964C8.20613 105.964 8.1374 105.937 8.06867 105.882L6.92775 104.752C6.80403 104.628 6.80403 104.436 6.92775 104.312C7.05146 104.188 7.24391 104.188 7.36762 104.312L8.50855 105.441C8.63226 105.565 8.63226 105.758 8.50855 105.882C8.43982 105.937 8.35734 105.964 8.28861 105.964Z" fill="#651FFF"/>
<path d="M12.2886 109.916C12.2061 109.916 12.1374 109.889 12.0687 109.833L10.9277 108.704C10.804 108.58 10.804 108.388 10.9277 108.264C11.0515 108.14 11.2439 108.14 11.3676 108.264L12.5085 109.393C12.6323 109.517 12.6323 109.71 12.5085 109.833C12.4536 109.889 12.3711 109.916 12.2886 109.916Z" fill="#651FFF"/>
<path d="M151.344 9.66685C150.972 9.66685 150.615 9.598 150.258 9.46029C149.488 9.15734 148.883 8.57898 148.553 7.80783C147.88 6.238 148.581 4.40652 150.106 3.718C150.849 3.3875 151.674 3.35996 152.416 3.66291C153.186 3.96586 153.79 4.54423 154.12 5.31537C154.794 6.88521 154.093 8.71669 152.567 9.40521C152.168 9.58423 151.756 9.66685 151.344 9.66685ZM151.33 4.06226C151 4.06226 150.67 4.13111 150.354 4.26882C149.117 4.81964 148.567 6.29308 149.103 7.55996C149.364 8.17964 149.845 8.64783 150.464 8.88193C151.069 9.11603 151.715 9.10226 152.306 8.84062C153.543 8.2898 154.093 6.81636 153.557 5.54947C153.296 4.9298 152.814 4.4616 152.196 4.2275C151.921 4.11734 151.632 4.06226 151.33 4.06226Z" fill="#651FFF"/>
</g>
<defs>
<clipPath id="clip0_143_225">
<rect width="254" height="252" fill="white"/>
</clipPath>
</defs>
</svg>
