<svg width="80" height="80" viewBox="0 0 80 80" fill="none" xmlns="http://www.w3.org/2000/svg">
<circle cx="40" cy="40" r="40" fill="#651FFF"/>
<g clip-path="url(#clip0_143_1015)">
<path d="M43.7925 50.2876C43.6315 50.4446 43.5217 50.6448 43.4771 50.8628L42.5623 55.3259C42.4817 55.719 42.8373 56.0659 43.2407 55.9878L47.816 55.0947C48.0391 55.051 48.2441 54.9443 48.4051 54.7871L56.4321 46.9558L51.819 42.4552L43.7925 50.2876ZM60.3271 39.9814L58.9753 38.662C58.0746 37.7832 56.6146 37.7832 55.7139 38.662L53.2712 41.0457L57.8844 45.5464L60.3271 43.1632C61.2239 42.2814 61.2239 40.8564 60.3271 39.9814Z" fill="white"/>
<path opacity="0.4" d="M34.2923 40C38.8216 40 42.4923 36.4181 42.4923 32C42.4923 27.5819 38.8216 24 34.2923 24C29.8208 24 26.15 27.5819 26.15 32C26.15 36.4181 29.8208 40 34.2923 40ZM37.598 43H31.102C24.9719 43 20 47.8563 20 53.8375C20 55.0312 20.9942 56 22.2204 56H40.5679C40.4881 55.6543 40.4763 55.2931 40.5498 54.935L41.4646 50.4719C41.589 49.8642 41.8923 49.3119 42.341 48.8744L45.2699 46.0169C43.2739 44.15 40.5769 43 37.598 43Z" fill="white"/>
</g>
<defs>
<clipPath id="clip0_143_1015">
<rect width="41" height="32" fill="white" transform="translate(20 24)"/>
</clipPath>
</defs>
</svg>
